<?xml version="1.0" standalone="no"?>
<!DOCTYPE svg PUBLIC "-//W3C//DTD SVG 20010904//EN"
 "http://www.w3.org/TR/2001/REC-SVG-20010904/DTD/svg10.dtd">
<svg version="1.0" xmlns="http://www.w3.org/2000/svg"
 width="800.000000pt" height="800.000000pt" viewBox="0 0 800.000000 800.000000"
 preserveAspectRatio="xMidYMid meet">
<metadata>
Created by potrace 1.14, written by Peter Selinger 2001-2017
</metadata>
<g transform="translate(0.000000,800.000000) scale(0.100000,-0.100000)"
fill="#000000" stroke="none">
<path d="M3310 6813 c-109 -12 -368 -59 -520 -94 -458 -108 -931 -279 -1170
-424 l-60 -36 0 -343 0 -343 -82 -6 c-46 -4 -136 -9 -201 -13 -114 -7 -118 -8
-148 -38 -92 -93 -157 -332 -175 -648 -4 -65 -5 -118 -3 -119 2 -1 139 -6 304
-13 l300 -11 6 -1160 c5 -1025 8 -1173 23 -1275 94 -631 341 -1018 758 -1189
332 -135 824 -134 1341 4 422 112 751 286 1004 528 88 84 173 186 173 207 0 7
-57 124 -126 261 l-126 248 -96 -48 c-180 -90 -314 -126 -507 -137 -293 -16
-478 97 -559 344 -60 180 -59 163 -63 1191 -2 519 -1 947 4 951 4 4 200 1 435
-8 l428 -15 55 38 c93 64 145 144 199 305 63 191 88 431 61 585 -8 50 -22 114
-31 143 l-15 52 -67 -5 c-184 -16 -1056 -64 -1063 -59 -5 3 -9 259 -9 570 0
531 -1 564 -17 562 -10 0 -34 -3 -53 -5z"/>
<path d="M5760 6757 c-82 -29 -133 -62 -194 -123 -62 -62 -110 -134 -138 -209
l-23 -60 3 -524 c1 -365 6 -528 13 -538 29 -35 247 2 451 77 164 60 326 187
451 355 139 186 182 367 142 601 -39 225 -174 383 -366 429 -101 23 -260 20
-339 -8z"/>
<path d="M5850 4680 c-25 -5 -82 -28 -127 -50 -134 -66 -238 -198 -278 -350
-16 -59 -17 -112 -11 -565 7 -557 3 -525 77 -525 122 0 406 86 534 163 217
129 406 375 451 587 31 146 2 373 -64 494 -88 162 -229 243 -437 251 -55 2
-120 0 -145 -5z"/>
<path d="M5890 2620 c-123 -16 -208 -60 -302 -157 -74 -78 -121 -162 -144
-260 -14 -59 -15 -131 -8 -560 6 -399 10 -495 21 -504 37 -31 309 23 485 97
249 104 496 385 554 629 20 85 14 278 -10 370 -53 195 -179 327 -352 369 -77
19 -175 25 -244 16z"/>
</g>
</svg>
